<svg width="60" height="59" xmlns="http://www.w3.org/2000/svg" xmlns:xlink="http://www.w3.org/1999/xlink" overflow="hidden"><g transform="translate(-327 -612)"><path d="M356.999 612C341.009 612 328 625.011 328 641.004 328 656.993 341.009 670 356.999 670 372.991 670 386 656.993 386 641.004 386.001 625.012 372.991 612 356.999 612ZM365.373 626.67C367.882 626.67 369.886 629.574 369.886 633.125 369.886 636.666 367.882 639.571 365.373 639.571 362.852 639.571 360.859 636.666 360.859 633.125 360.859 629.574 362.852 626.67 365.373 626.67ZM348.598 626.67C351.118 626.67 353.122 629.574 353.122 633.125 353.122 636.666 351.118 639.571 348.598 639.571 346.088 639.571 344.09 636.666 344.09 633.125 344.09 629.574 346.088 626.67 348.598 626.67ZM372.14 656.346C367.621 651.832 362.469 650.539 356.989 650.539 351.508 650.539 346.347 651.832 341.834 656.346L340.22 655.054C344.09 647.961 351.179 645.382 356.989 645.382 362.794 645.382 369.886 647.961 373.755 655.054L372.14 656.346Z" fill="#F1661F" fill-rule="evenodd"/></g></svg>