<svg width="60" height="59" xmlns="http://www.w3.org/2000/svg" xmlns:xlink="http://www.w3.org/1999/xlink" overflow="hidden"><g transform="translate(-191 -390)"><path d="M223 427 224.389 436 226 435.706 224.691 427.342Z" fill="#D62E45" fill-rule="evenodd"/><path d="M221.001 391C205.009 391 192 404.011 192 420.004 192 435.993 205.009 449 221.001 449 236.991 449 250 435.993 250 420.004 250 404.012 236.991 391 221.001 391ZM224.165 407.261 226.1 405.325 230.935 409.846 235.776 405.325 237.708 407.261 233.195 412.1 237.708 416.938 235.776 418.869 230.935 414.359 226.1 418.869 224.165 416.938 228.681 412.1 224.165 407.261ZM204.175 407.261 206.105 405.325 210.943 409.846 215.78 405.325 217.713 407.261 213.202 412.1 217.713 416.938 215.78 418.869 210.943 414.359 206.105 418.869 204.175 416.938 208.687 412.1 204.175 407.261ZM236.743 433.067C234.612 431.387 232.355 430.158 230.098 429.322 230.485 431.451 231.003 434.286 231.003 434.934 231.003 438.162 227.198 439.96 224.164 439.96 221.263 439.96 219.136 438.673 218.748 436.294L217.394 428.097C213.005 428.552 208.944 430.032 205.14 433.067L203.527 431.451C208.041 425.968 214.489 423.395 220.943 423.395 227.392 423.395 233.838 425.968 238.354 431.451L236.743 433.067Z" fill="#D62E45" fill-rule="evenodd"/></g></svg>