<svg width="60" height="59" xmlns="http://www.w3.org/2000/svg" xmlns:xlink="http://www.w3.org/1999/xlink" overflow="hidden"><g transform="translate(-406 -612)"><path d="M436 612C420.009 612 407 625.011 407 641.004 407 656.993 420.009 670 436 670 451.991 670 465 656.993 465 641.004 465 625.012 451.991 612 436 612ZM427.856 626.195C430.378 626.195 432.37 629.098 432.37 632.645 432.37 636.192 430.378 639.095 427.856 639.095 425.34 639.095 423.348 636.192 423.348 632.645 423.348 629.098 425.34 626.195 427.856 626.195ZM445.013 657.503 420.309 646.349 421.926 642.798 446.567 653.956 445.013 657.503ZM444.62 639.095C442.109 639.095 440.111 636.192 440.111 632.645 440.111 629.098 442.109 626.195 444.62 626.195 447.141 626.195 449.149 629.098 449.149 632.645 449.149 636.192 447.141 639.095 444.62 639.095Z" fill="#FF9C00" fill-rule="evenodd"/></g></svg>