<svg width="59" height="59" xmlns="http://www.w3.org/2000/svg" xmlns:xlink="http://www.w3.org/1999/xlink" overflow="hidden"><g transform="translate(-484 -612)"><path d="M513.494 612C497.23 612 484 625.011 484 641.004 484 656.993 497.23 670 513.494 670 529.764 670 543 656.993 543 641.004 543 625.012 529.764 612 513.494 612ZM522.016 626.195C524.575 626.195 526.602 629.098 526.602 632.645 526.602 636.192 524.575 639.095 522.016 639.095 519.453 639.095 517.425 636.192 517.425 632.645 517.425 629.098 519.453 626.195 522.016 626.195ZM504.966 626.195C507.52 626.195 509.553 629.098 509.553 632.645 509.553 636.192 507.52 639.095 504.966 639.095 502.403 639.095 500.364 636.192 500.364 632.645 500.364 629.098 502.403 626.195 504.966 626.195ZM527.261 652.774 499.715 652.774 499.715 648.904 527.261 648.904 527.261 652.774Z" fill="#FFCE00" fill-rule="evenodd"/></g></svg>