<svg width="60" height="59" xmlns="http://www.w3.org/2000/svg" xmlns:xlink="http://www.w3.org/1999/xlink" overflow="hidden"><g transform="translate(-791 -612)"><path d="M821 612C805.009 612 792 625.011 792 641.004 792 656.993 805.009 670 821 670 836.99 670 850 656.993 850 641.004 850 625.012 836.99 612 821 612ZM830.602 626.734C834.473 626.734 837.057 629.318 838.333 632.215L836.084 633.832C835.121 631.897 833.175 630.279 830.602 630.279 828.03 630.279 826.418 631.572 825.122 633.832L822.862 632.215C824.159 629.318 826.732 626.734 830.602 626.734ZM811.26 626.734C815.13 626.734 817.704 629.318 818.991 632.215L816.732 633.832C815.769 631.897 813.834 630.279 811.26 630.279 808.676 630.279 807.055 631.572 805.768 633.832L803.519 632.215C804.806 629.318 807.379 626.734 811.26 626.734ZM820.926 658.423C810.225 658.423 801.583 651.336 801.583 642.542L840.279 642.542C840.279 651.337 831.639 658.423 820.926 658.423Z" fill="#AAEA0D" fill-rule="evenodd"/></g></svg>