<svg width="59" height="59" xmlns="http://www.w3.org/2000/svg" xmlns:xlink="http://www.w3.org/1999/xlink" overflow="hidden"><defs><clipPath id="clip0"><rect x="250" y="612" width="59" height="59"/></clipPath></defs><g clip-path="url(#clip0)" transform="translate(-250 -612)"><path d="M279.503 612C263.235 612 250 625.011 250 641.004 250 656.993 263.235 670 279.503 670 295.768 670 309 656.993 309 641.004 309 625.012 295.768 612 279.503 612ZM262.577 628.726 263.888 626.473 277.011 632.28 277.011 634.859 263.888 640.666 262.577 638.407 271.762 633.567 262.577 628.726ZM295.048 656.787C290.459 652.278 285.208 650.986 279.633 650.986 274.058 650.986 268.809 652.278 264.218 656.787L262.577 655.5C266.516 648.408 273.731 645.827 279.633 645.827 285.538 645.827 292.755 648.408 296.69 655.5L295.048 656.787ZM296.69 638.405 295.378 640.664 282.256 634.857 282.256 632.278 295.378 626.471 296.69 628.724 287.504 633.564 296.69 638.405Z" fill="#EB4138" fill-rule="evenodd"/></g></svg>