<svg width="60" height="59" xmlns="http://www.w3.org/2000/svg" xmlns:xlink="http://www.w3.org/1999/xlink" overflow="hidden"><g transform="translate(-560 -612)"><path d="M590.006 612C574.012 612 561 625.011 561 641.004 561 656.993 574.012 670 590.006 670 605.994 670 619 656.993 619 641.004 619 625.012 605.994 612 590.006 612ZM577.152 632.907C577.152 629.36 579.149 626.451 581.669 626.451 584.19 626.451 586.178 629.36 586.178 632.907 586.178 636.454 584.19 639.362 581.669 639.362 579.149 639.362 577.152 636.454 577.152 632.907ZM601.133 649.195C599.418 652.974 594.858 654.318 591.155 654.318L583.331 654.312 583.331 649.933 591.155 649.939C592.766 649.939 596.52 649.939 598.644 647.685L599.146 647.13 601.542 648.275 601.133 649.195ZM598.436 639.361C595.926 639.361 593.917 636.453 593.917 632.906 593.917 629.359 595.925 626.45 598.436 626.45 600.956 626.45 602.955 629.359 602.955 632.906 602.955 636.453 600.956 639.361 598.436 639.361Z" fill="#FFE600" fill-rule="evenodd"/></g></svg>