<svg width="60" height="59" xmlns="http://www.w3.org/2000/svg" xmlns:xlink="http://www.w3.org/1999/xlink" overflow="hidden"><g transform="translate(-868 -612)"><path d="M897.995 612C882.007 612 869 625.011 869 641.004 869 656.993 882.007 670 897.995 670 913.989 670 927 656.993 927 641.004 927 625.012 913.989 612 897.995 612ZM882.389 623.234C884.93 623.234 887.023 625.331 887.023 627.87 887.023 625.331 889.104 623.234 891.646 623.234 894.177 623.234 896.28 625.331 896.28 627.87 896.28 630.061 895.307 631.039 894.082 632.258L887.023 639.32 879.953 632.258C878.729 631.039 877.756 630.061 877.756 627.87 877.757 625.331 879.859 623.234 882.389 623.234ZM897.932 660.604C887.221 660.604 878.593 652.539 878.593 642.542L917.27 642.542C917.27 652.54 908.642 660.604 897.932 660.604ZM915.797 632.257 908.725 639.319 901.655 632.257C900.441 631.038 899.47 630.06 899.47 627.869 899.47 625.331 901.561 623.233 904.103 623.233 906.634 623.233 908.725 625.331 908.725 627.869 908.725 625.331 910.817 623.233 913.359 623.233 915.891 623.233 917.993 625.331 917.993 627.869 917.993 630.06 917.019 631.039 915.797 632.257Z" fill="#83E828" fill-rule="evenodd"/></g></svg>