<svg width="60" height="59" xmlns="http://www.w3.org/2000/svg" xmlns:xlink="http://www.w3.org/1999/xlink" overflow="hidden"><g transform="translate(-638 -612)"><path d="M667.5 612C651.234 612 638 625.011 638 641.004 638 656.993 651.234 670 667.5 670 683.766 670 697 656.993 697 641.004 697 625.012 683.766 612 667.5 612ZM676.077 626.451C678.631 626.451 680.663 629.36 680.663 632.907 680.663 636.454 678.631 639.362 676.077 639.362 673.512 639.362 671.479 636.454 671.479 632.907 671.479 629.36 673.512 626.451 676.077 626.451ZM659.019 626.451C661.584 626.451 663.606 629.36 663.606 632.907 663.606 636.454 661.584 639.362 659.019 639.362 656.466 639.362 654.422 636.454 654.422 632.907 654.422 629.36 656.466 626.451 659.019 626.451ZM667.542 656.775C659.679 656.775 652.464 652.256 649.176 645.162L650.825 643.876C655.741 649.029 660.328 651.614 667.542 651.614 674.757 651.614 679.354 649.03 684.282 643.876L685.92 645.162C682.631 652.256 675.418 656.775 667.542 656.775Z" fill="#E0E500" fill-rule="evenodd"/></g></svg>