<svg width="60" height="59" xmlns="http://www.w3.org/2000/svg" xmlns:xlink="http://www.w3.org/1999/xlink" overflow="hidden"><g transform="translate(-715 -612)"><path d="M744.501 612C728.234 612 715 625.011 715 641.004 715 656.993 728.234 670 744.501 670 760.767 670 774 656.993 774 641.004 774 625.012 760.767 612 744.501 612ZM732.995 654.862C728.359 652.252 725.367 648.779 725.367 644.093L732.995 644.093 732.995 654.862ZM729.017 633.466 726.719 631.854C728.038 628.946 730.655 626.368 734.603 626.368 738.531 626.368 741.158 628.947 742.456 631.854L740.168 633.466C739.189 631.525 737.22 629.913 734.602 629.913 731.975 629.913 730.325 631.206 729.017 633.466ZM743.48 657.714C740.365 657.608 737.435 656.945 734.908 655.819L734.908 644.093 743.48 644.093 743.48 657.714ZM753.966 655.819C751.427 656.945 748.497 657.608 745.382 657.714L745.382 644.093 753.966 644.093 753.966 655.819ZM748.704 633.466 746.405 631.854C747.725 628.946 750.342 626.368 754.28 626.368 758.208 626.368 760.846 628.947 762.144 631.854L759.846 633.466C758.867 631.525 756.898 629.913 754.28 629.913 751.652 629.913 750.012 631.206 748.704 633.466ZM755.868 654.862 755.868 644.093 763.496 644.093C763.495 648.78 760.516 652.253 755.868 654.862Z" fill="#C6E605" fill-rule="evenodd"/></g></svg>